<?xml version="1.0" encoding="UTF-8" standalone="no"?>
<!-- Created with Inkscape (http://www.inkscape.org/) -->

<svg
   width="80px"
   viewBox="-5 -5 115 80"
   version="1.1"
   id="svg5"
   inkscape:version="1.1 (c68e22c387, 2021-05-23)"
   sodipodi:docname="md2pdflogo.svg"
   xmlns:inkscape="http://www.inkscape.org/namespaces/inkscape"
   xmlns:sodipodi="http://sodipodi.sourceforge.net/DTD/sodipodi-0.dtd"
   xmlns="http://www.w3.org/2000/svg"
   xmlns:svg="http://www.w3.org/2000/svg">
  <sodipodi:namedview
     id="namedview7"
     pagecolor="#ffffff"
     bordercolor="#666666"
     borderopacity="1.0"
     inkscape:pageshadow="2"
     inkscape:pageopacity="0.0"
     inkscape:pagecheckerboard="0"
     inkscape:document-units="mm"
     showgrid="false"
     inkscape:zoom="0.33540614"
     inkscape:cx="305.59965"
     inkscape:cy="192.30417"
     inkscape:window-width="1920"
     inkscape:window-height="1129"
     inkscape:window-x="-8"
     inkscape:window-y="-8"
     inkscape:window-maximized="1"
     inkscape:current-layer="layer1" />
  <defs
     id="defs2" />
  <g
     inkscape:label="Layer 1"
     inkscape:groupmode="layer"
     id="layer1">
    <path
       style="fill:#000000;stroke-width:0.130278"
       d="M 3.633091,68.628225 C 2.8972649,68.365935 2.2301074,67.772793 1.8583144,67.05035 L 1.5320328,66.416345 1.4986981,38.207682 C 1.480332,22.69292 1.5099246,7.9764575 1.5643729,5.5044335 L 1.6633973,1.009848 2.01289,0.41445128 C 2.3647019,-0.18489438 3.0437802,-0.7475374 3.7226861,-1.0021813 3.9738094,-1.0963704 9.9202676,-1.13974 22.584595,-1.13974 c 16.299301,0 18.552675,0.023635 18.979527,0.19922552 0.582309,0.23951769 11.867738,11.59112648 12.2357,12.30745448 0.215405,0.419333 0.237499,1.02534 0.27496,7.541439 0.02324,4.039012 -0.0092,7.13543 -0.07546,7.201666 -0.156122,0.156122 -2.277978,-2.055823 -2.625442,-2.73691 -0.2591,-0.507874 -0.27108,-0.730227 -0.27108,-5.031137 v -4.49978 l -4.592297,-0.003 c -4.160106,-0.0025 -4.641446,-0.02521 -5.114528,-0.240104 C 40.739182,13.300741 40.084576,12.564452 39.90673,11.924042 39.82284,11.621966 39.769791,9.5829634 39.769348,6.6437559 L 39.768852,1.8556245 22.2139,1.8886638 4.6589538,1.9217031 4.57413,2.6382325 C 4.434971,3.8137175 4.4515202,65.471997 4.591068,65.692735 c 0.1089065,0.172292 2.8387502,0.199403 23.063745,0.229065 15.954944,0.02339 23.018703,-0.0084 23.197962,-0.104288 0.239823,-0.128351 0.25522,-0.257476 0.221438,-1.857538 l -0.03629,-1.719599 -9.705708,-9.85e-4 c -7.301173,-9.85e-4 -9.81603,-0.04052 -10.151022,-0.160036 -0.773621,-0.27595 -1.417129,-0.7893 -1.794772,-1.431759 L 29.020956,60.02586 28.98383,53.477767 c -0.02339,-4.123866 0.01157,-6.728358 0.09449,-7.035008 0.171829,-0.635531 0.785558,-1.367836 1.403772,-1.674994 0.46611,-0.231585 1.041358,-0.248538 10.524459,-0.310116 l 10.031398,-0.06514 0.03801,-3.500767 c 0.03373,-3.109299 0.0651,-3.553897 0.280361,-3.975839 0.276181,-0.541357 2.431323,-2.66701 2.598967,-2.563402 0.06068,0.03752 0.08011,2.326503 0.04318,5.086669 l -0.06716,5.018477 h 1.378394 c 0.758112,0 1.522255,0.0547 1.698092,0.121551 0.496943,0.18894 1.246837,0.906749 1.561395,1.494588 0.278978,0.521351 0.286334,0.6592 0.32441,6.078034 0.0456,6.489076 -0.03466,7.678919 -0.576489,8.548375 -0.580029,0.930733 -1.470086,1.370569 -2.965033,1.465212 l -1.187445,0.07518 -0.06514,2.214722 c -0.0625,2.125027 -0.07967,2.239444 -0.423903,2.825032 -0.404965,0.688892 -0.871519,1.065476 -1.668317,1.346605 -0.793002,0.279785 -47.5890748,0.281144 -48.3738591,0.0015 z m 52.447024,-9.488153 c 0.05473,-0.08611 0.100412,-2.748653 0.10151,-5.916772 0.002,-5.5627 -0.0066,-5.764836 -0.25,-5.895078 -0.168368,-0.09011 -4.157683,-0.13486 -12.021718,-0.13486 -10.441674,0 -11.802401,0.0229 -12.05927,0.202805 l -0.289545,0.202805 v 5.682011 c 0,5.228452 0.01822,5.70216 0.227986,5.934376 0.223451,0.247336 0.466297,0.250655 12.209754,0.166816 9.108046,-0.06502 12.005632,-0.123092 12.081283,-0.242103 z M 34.61642,57.060157 c -0.03476,-0.09053 -0.04756,-1.805314 -0.02846,-3.810627 l 0.03466,-3.646027 1.76421,-0.03609 c 1.639271,-0.03353 1.805344,-0.01433 2.345002,0.270671 0.862887,0.455725 1.330854,1.279221 1.326565,2.334401 -0.002,0.450024 -0.07151,0.994099 -0.154851,1.209056 -0.36747,0.947819 -1.406844,1.498197 -2.829292,1.498197 h -0.692885 v 1.016168 c 0,0.616648 -0.06146,1.077632 -0.156333,1.172501 -0.212481,0.212485 -1.526499,0.205725 -1.60862,-0.0083 z m 3.459293,-4.230217 c 0.586475,-0.745585 -0.04771,-1.728241 -1.115354,-1.728241 h -0.578986 v 1.042225 1.042225 h 0.707076 c 0.615191,0 0.743483,-0.04628 0.987264,-0.356209 z m 3.315157,4.230217 c -0.03476,-0.09053 -0.04756,-1.805314 -0.02846,-3.810627 l 0.03466,-3.646027 h 2.019307 c 1.952731,0 2.038638,0.01142 2.605559,0.346646 1.311065,0.775213 1.871689,1.804158 1.869616,3.431415 -9.85e-4,0.801038 -0.07096,1.201636 -0.302233,1.731092 -0.380636,0.87137 -1.253519,1.656662 -2.131168,1.917293 -0.853655,0.253507 -3.972707,0.276674 -4.067285,0.03023 z m 3.276041,-1.646967 c 0.848814,-0.385481 1.15961,-0.936169 1.15961,-2.054641 0,-0.741124 -0.05569,-1.00955 -0.268603,-1.294731 -0.480197,-0.643169 -0.915834,-0.876502 -1.748951,-0.936765 l -0.78342,-0.05667 v 2.295523 2.295522 l 0.553681,-0.003 c 0.304523,-0.0015 0.793983,-0.111994 1.087683,-0.245377 z m 4.38399,1.725292 c -0.250577,-0.101112 -0.233974,-7.248626 0.01733,-7.457187 0.123525,-0.102515 0.850577,-0.138253 2.312433,-0.113658 l 2.132261,0.03585 v 0.716529 0.71653 l -1.400488,0.03698 -1.400487,0.03698 4.5e-5,0.744694 4.4e-5,0.744689 0.952462,0.0092 c 1.343981,0.01295 1.415092,0.05479 1.367074,0.803707 l -0.03979,0.620154 -1.13993,0.03762 -1.139934,0.03762 v 1.352194 c 0,0.743704 -0.0356,1.44492 -0.07907,1.558258 -0.05871,0.153 -0.25164,0.203426 -0.749103,0.195789 -0.368509,-0.0057 -0.743301,-0.03983 -0.832866,-0.076 z m 0.227986,-46.229395 c 0,-0.09434 -6.47753,-6.7498503 -6.623292,-6.8052785 -0.04732,-0.017972 -0.05671,1.4769453 -0.02088,3.3220843 l 0.06514,3.3547982 1.367921,0.06514 c 2.522203,0.120103 5.211115,0.152744 5.211115,0.06326 z m 16.289321,51.144525 c -0.08927,-0.166812 -0.13486,-3.330701 -0.13486,-9.359822 0,-8.658059 0.01177,-9.118472 0.238247,-9.323434 0.186389,-0.168678 0.506806,-0.215608 1.47214,-0.215608 0.785991,0 1.290645,0.05675 1.390226,0.156334 0.08599,0.08599 0.156333,0.473708 0.156333,0.861612 v 0.705283 l 0.618825,-0.658723 c 0.89797,-0.95588 1.859467,-1.363282 3.379019,-1.431764 0.956535,-0.04308 1.378477,9.85e-4 2.10129,0.220773 1.619841,0.49201 3.108131,1.862372 3.843731,3.539159 0.520617,1.186741 0.675636,2.040858 0.661081,3.642334 -0.01645,1.806378 -0.39658,3.159492 -1.244336,4.429014 -1.922621,2.879151 -6.075149,3.60698 -8.441359,1.479555 l -0.657693,-0.59132 v 3.242962 c 0,2.348602 -0.04313,3.286081 -0.156334,3.399301 -0.103086,0.103087 -0.656162,0.156334 -1.623889,0.156334 -1.317598,0 -1.481337,-0.02575 -1.602421,-0.25199 z m 8.079542,-8.093491 c 0.672337,-0.336932 1.280738,-0.998299 1.670745,-1.816197 0.301519,-0.63233 0.341668,-0.877269 0.341668,-2.084445 0,-1.151569 -0.04737,-1.470943 -0.299554,-2.019311 -0.371473,-0.807779 -1.099072,-1.582991 -1.784891,-1.901695 -0.686267,-0.318916 -1.912217,-0.320403 -2.610602,-0.003 -0.750179,0.340762 -1.582296,1.339214 -1.849506,2.219202 -0.340792,1.122312 -0.304715,3.024878 0.07308,3.854553 0.329724,0.724093 0.938371,1.42005 1.498291,1.713218 0.847347,0.443663 2.118538,0.459906 2.960764,0.03782 z m 11.490605,3.074393 c -1.732943,-0.541357 -3.193605,-2.15207 -3.903354,-4.304341 -0.290652,-0.881372 -0.345219,-1.283501 -0.353575,-2.605555 -0.0059,-0.931847 0.06287,-1.852771 0.170214,-2.279865 0.808626,-3.217249 3.126394,-5.150093 6.138121,-5.118728 1.401457,0.01458 2.349587,0.3542 3.250644,1.164328 l 0.657693,0.59132 v -2.988274 c 0,-3.652094 -0.126352,-3.419489 1.85741,-3.419489 1.081685,0 1.425288,0.04436 1.585645,0.20472 0.182208,0.182209 0.204725,1.206206 0.204725,9.310288 0,8.869072 -0.0065,9.109068 -0.25199,9.240427 -0.359793,0.192554 -2.912786,0.174926 -3.10918,-0.02147 -0.08599,-0.08598 -0.156333,-0.473358 -0.156333,-0.860839 v -0.704505 l -0.773021,0.715682 c -1.023465,0.947544 -1.94215,1.269965 -3.584016,1.257838 -0.648875,-0.0049 -1.428721,-0.08648 -1.732983,-0.181534 z m 3.770183,-2.959352 c 0.647428,-0.193976 1.593489,-1.020806 1.96702,-1.719116 0.257406,-0.481232 0.287679,-0.729721 0.287679,-2.36171 0,-2.088896 -0.146471,-2.534513 -1.101883,-3.352307 -1.341918,-1.14863 -3.575414,-0.95841 -4.699553,0.400244 -0.879805,1.063353 -1.175701,3.333832 -0.625959,4.80315 0.343688,0.918591 1.26543,1.927531 1.997942,2.186956 0.643863,0.228025 1.500231,0.244875 2.174754,0.04279 z m 10.071403,2.711961 c -0.174695,-0.266619 -0.19668,-0.991898 -0.165852,-5.471717 l 0.03555,-5.164357 -1.04222,-0.002 c -0.573225,-9.85e-4 -1.129614,-0.0572 -1.236428,-0.124727 -0.242842,-0.153532 -0.348882,-1.983106 -0.14556,-2.511361 0.135894,-0.353063 0.154492,-0.358272 1.281053,-0.358897 l 1.143155,-4.93e-4 0.01763,-1.139299 c 0.02142,-1.385893 0.187079,-2.040539 0.693023,-2.738983 0.816668,-1.127378 2.304328,-1.652255 4.305048,-1.518911 1.61595,0.107695 1.69361,0.176605 1.69361,1.502628 0,0.668718 -0.0555,1.050059 -0.16285,1.119166 -0.0896,0.05765 -0.67699,0.137199 -1.30539,0.176777 -1.5182,0.09561 -1.69911,0.261793 -1.7679,1.623953 l -0.0493,0.975959 h 1.42124 c 0.93171,0 1.47509,0.05385 1.57757,0.156334 0.21114,0.211141 0.21114,2.342309 0,2.553445 -0.10229,0.102294 -0.6427,0.156334 -1.56333,0.156334 h -1.407 v 5.33209 c 0,4.673647 -0.0253,5.357369 -0.20473,5.53681 -0.15987,0.159879 -0.50166,0.204725 -1.56033,0.204725 -1.280659,0 -1.366738,-0.01699 -1.556997,-0.307363 z M 10.366879,39.375781 C 10.210344,39.312711 10.019814,39.144403 9.9434739,39.001768 9.8481868,38.82372 9.8046793,35.029124 9.8046793,26.896144 c 0,-11.787299 0.00148,-11.847991 0.2700167,-12.189547 l 0.270011,-0.343264 h 2.788512 2.788517 l 0.213618,0.326016 c 0.17695,0.27006 0.194232,0.476893 0.100708,1.205073 l -0.1129,0.879052 -1.431153,0.107203 c -0.787133,0.05896 -1.505287,0.168736 -1.595902,0.243939 -0.239827,0.199038 -0.241694,19.292917 -0.002,19.483467 0.08957,0.07117 0.749096,0.170056 1.465625,0.219743 0.866959,0.06012 1.36795,0.154266 1.497596,0.281435 0.136269,0.133659 0.195001,0.467041 0.19542,1.109224 9.84e-4,1.31329 0.05568,1.2903 -3.053265,1.280226 -1.401447,-0.0044 -2.676163,-0.05986 -2.832699,-0.12293 z m 21.852724,-0.122245 c -0.21121,-0.211215 -0.267677,-0.434376 -0.267677,-1.057912 0,-1.262919 0.039,-1.294215 1.612864,-1.294215 1.135764,0 1.376434,-0.03678 1.558751,-0.238243 0.196483,-0.217114 0.215612,-1.082079 0.215612,-9.75065 0,-9.050016 -0.01157,-9.522891 -0.238247,-9.728016 -0.186995,-0.169229 -0.508303,-0.215612 -1.493613,-0.215612 -1.167439,0 -1.266611,-0.02053 -1.415923,-0.293124 -0.221378,-0.404163 -0.218419,-1.697329 0.0044,-1.96636 0.156447,-0.188817 0.534183,-0.215795 3.021575,-0.215795 2.789959,0 2.846545,0.0054 3.045578,0.289545 0.175507,0.250567 0.202805,1.004656 0.202805,5.601948 v 5.31241 h 2.931251 2.931255 v -1.829816 c 0,-1.76906 0.01064,-1.840427 0.319772,-2.149583 0.661875,-0.661875 0.753877,-0.599238 4.361931,2.96974 5.31867,5.261073 5.219419,5.156524 5.219419,5.497892 0,0.236012 -0.998969,1.302901 -4.113398,4.393065 -2.262367,2.244742 -4.240963,4.152552 -4.396878,4.239582 -0.408353,0.227927 -0.658594,0.203431 -1.047582,-0.10255 L 44.328265,38.445831 V 36.305702 34.165573 H 41.39701 38.465759 l -0.0039,2.377573 c -0.0034,1.913473 -0.04254,2.428433 -0.200816,2.638127 -0.184143,0.243969 -0.374201,0.263083 -2.985123,0.300249 -2.66732,0.03796 -2.800088,0.02807 -3.056135,-0.227986 z m 61.359673,-4.709164 c -1.590564,-0.31179 -3.010727,-1.553354 -3.906127,-3.414894 -0.697144,-1.449357 -0.975422,-2.892372 -0.883213,-4.579833 0.191978,-3.513235 1.999267,-6.138471 4.81459,-6.993598 0.740607,-0.224952 1.132184,-0.264506 2.111437,-0.213288 1.44657,0.07567 2.352738,0.438295 3.292354,1.317515 l 0.622981,0.582939 -0.04161,-3.256833 c -0.03752,-2.936499 -0.0195,-3.28125 0.18304,-3.50508 0.197729,-0.218488 0.416572,-0.248248 1.825562,-0.248248 1.50663,0 1.61283,0.01704 1.8037,0.289544 0.17912,0.255742 0.2028,1.417416 0.2028,9.95031 0,7.686265 -0.0341,9.689028 -0.16662,9.799042 -0.0916,0.07605 -0.84426,0.156516 -1.67249,0.178801 -1.850208,0.04979 -1.938951,2.22e-4 -1.938951,-1.082792 0,-0.421146 -0.01881,-0.765719 -0.04185,-0.765719 -0.023,0 -0.324588,0.270927 -0.670176,0.602058 -0.798143,0.764759 -1.730088,1.191001 -2.950351,1.349402 -1.13857,0.147796 -1.795634,0.145427 -2.585081,-0.0094 z m 4.388037,-3.579397 c 0.741056,-0.362565 1.380482,-1.090991 1.686644,-1.9214 0.230857,-0.626156 0.211383,-3.038443 -0.03112,-3.855036 -0.290893,-0.979559 -1.301246,-1.997612 -2.262473,-2.279736 -0.389184,-0.11423 -0.862198,-0.207685 -1.051147,-0.207685 -1.496518,0 -2.911442,1.139994 -3.396336,2.736402 -0.801708,2.639441 0.352777,5.30107 2.549531,5.877869 0.660096,0.173326 1.744479,0.02162 2.504905,-0.350414 z m -32.117074,3.304821 c -0.225544,-0.225543 -0.225544,-14.183195 0,-14.408738 0.104598,-0.104593 0.68511,-0.156334 1.754165,-0.156334 1.855002,0 1.867558,0.0084 1.867558,1.254583 v 0.750597 l 0.372462,-0.587306 c 1.033569,-1.629768 3.757942,-2.308531 5.555187,-1.384042 0.615742,0.316734 1.492209,1.119909 1.90876,1.749143 0.186631,0.281917 0.193041,0.278751 0.638077,-0.315478 0.960223,-1.282122 2.147358,-1.85833 3.828635,-1.85833 1.336915,0 2.213155,0.344948 3.202153,1.260584 0.869362,0.804879 1.480638,1.898125 1.690726,3.0238 0.07289,0.390553 0.130965,2.857028 0.130965,5.561991 v 4.860254 l -0.289544,0.202805 c -0.217666,0.152453 -0.630923,0.202805 -1.664624,0.202805 -1.033707,0 -1.446964,-0.05035 -1.664625,-0.202805 L 82.89059,34.02052 82.889605,29.500753 c -3.94e-4,-2.707061 -0.05469,-4.714087 -0.135284,-5.004272 -0.36584,-1.317263 -1.778632,-2.011699 -3.029447,-1.489077 -0.556814,0.232653 -1.216388,0.999416 -1.386435,1.611751 -0.08302,0.298959 -0.136943,2.239715 -0.137386,4.944816 -4.93e-4,3.873575 -0.02738,4.479341 -0.205449,4.657433 -0.299314,0.299319 -3.329855,0.299319 -3.629168,0 -0.178393,-0.178446 -0.204671,-0.8002 -0.204671,-4.844285 0,-4.431288 -0.01216,-4.664671 -0.270706,-5.198775 -0.358247,-0.740046 -0.906975,-1.181945 -1.595966,-1.285268 -0.98977,-0.148426 -1.984992,0.435862 -2.446823,1.436515 -0.219167,0.47487 -0.240763,0.926829 -0.243368,5.093217 -0.0025,4.261848 -0.01906,4.586736 -0.241108,4.78771 -0.19376,0.175354 -0.529442,0.215612 -1.797835,0.215612 -1.03931,0 -1.611742,-0.05215 -1.715922,-0.156334 z m -48.592214,-0.500991 -0.298196,-0.119699 0.01876,-6.441344 c 0.01034,-3.542743 -0.01285,-6.492498 -0.05147,-6.555012 -0.03865,-0.06251 -0.01861,-0.197201 0.04451,-0.299308 0.149002,-0.241089 2.578178,-0.345012 3.330342,-0.142478 0.518283,0.139558 0.561303,0.198118 2.018583,2.747688 0.818961,1.432798 1.576954,2.721158 1.684433,2.86302 0.183661,0.242423 0.280873,0.09953 1.616281,-2.375826 0.781481,-1.448564 1.500989,-2.765665 1.59891,-2.926883 0.170923,-0.281415 0.250488,-0.293124 1.991241,-0.293124 1.307628,0 1.842515,0.0454 1.918342,0.162848 0.157023,0.243186 0.04146,13.155535 -0.119522,13.353485 -0.181672,0.223402 -2.780772,0.227912 -2.918498,0.0051 -0.05364,-0.08678 -0.08254,-2.124004 -0.06424,-4.527157 0.01975,-2.589178 -0.01438,-4.316297 -0.08371,-4.239095 -0.06434,0.07165 -0.718213,1.214842 -1.453045,2.540417 -0.734826,1.32558 -1.430065,2.483423 -1.544973,2.572988 -0.248317,0.193553 -1.249595,0.215918 -1.586822,0.03545 -0.130936,-0.07007 -0.839341,-1.183949 -1.574232,-2.475278 -0.73489,-1.291335 -1.38603,-2.347874 -1.446978,-2.347874 -0.06095,0 -0.110817,1.873939 -0.110817,4.164306 0,3.983801 -0.01093,4.170156 -0.25199,4.299171 -0.308162,0.164926 -2.305144,0.163931 -2.716899,-0.0015 z"
       id="path836" />
  </g>
</svg>
